<?xml version="1.0" encoding="utf-8" standalone="no"?>
<!DOCTYPE svg PUBLIC "-//W3C//DTD SVG 1.1//EN"
  "http://www.w3.org/Graphics/SVG/1.1/DTD/svg11.dtd">
<svg xmlns:xlink="http://www.w3.org/1999/xlink" width="340.140729pt" height="269.276703pt" viewBox="0 0 340.140729 269.276703" xmlns="http://www.w3.org/2000/svg" version="1.1">
 <metadata>
  <rdf:RDF xmlns:dc="http://purl.org/dc/elements/1.1/" xmlns:cc="http://creativecommons.org/ns#" xmlns:rdf="http://www.w3.org/1999/02/22-rdf-syntax-ns#">
   <cc:Work>
    <dc:type rdf:resource="http://purl.org/dc/dcmitype/StillImage"/>
    <dc:date>2026-05-03T18:36:13.570012</dc:date>
    <dc:format>image/svg+xml</dc:format>
    <dc:creator>
     <cc:Agent>
      <dc:title>Matplotlib v3.10.7, https://matplotlib.org/</dc:title>
     </cc:Agent>
    </dc:creator>
   </cc:Work>
  </rdf:RDF>
 </metadata>
 <defs>
  <style type="text/css">*{stroke-linejoin: round; stroke-linecap: butt}</style>
 </defs>
 <g id="figure_1">
  <g id="patch_1">
   <path d="M 0 269.276703 
L 340.140729 269.276703 
L 340.140729 0 
L 0 0 
z
" style="fill: #ffffff"/>
  </g>
  <g id="axes_1">
   <g id="patch_2">
    <path d="M 38.012781 235.758516 
L 332.940729 235.758516 
L 332.940729 20.418516 
L 38.012781 20.418516 
z
" style="fill: #ffffff"/>
   </g>
   <g id="PathCollection_1">
    <defs>
     <path id="m2d807672b2" d="M 0 2.645751 
C 0.701661 2.645751 1.374679 2.366978 1.870829 1.870829 
C 2.366978 1.374679 2.645751 0.701661 2.645751 0 
C 2.645751 -0.701661 2.366978 -1.374679 1.870829 -1.870829 
C 1.374679 -2.366978 0.701661 -2.645751 0 -2.645751 
C -0.701661 -2.645751 -1.374679 -2.366978 -1.870829 -1.870829 
C -2.366978 -1.374679 -2.645751 -0.701661 -2.645751 0 
C -2.645751 0.701661 -2.366978 1.374679 -1.870829 1.870829 
C -1.374679 2.366978 -0.701661 2.645751 0 2.645751 
z
" style="stroke: #222222; stroke-opacity: 0.88; stroke-width: 0.45"/>
    </defs>
    <g clip-path="url(#p6d79925ae5)">
     <use xlink:href="#m2d807672b2" x="206.313252" y="132.061845" style="fill: #e45756; fill-opacity: 0.88; stroke: #222222; stroke-opacity: 0.88; stroke-width: 0.45"/>
    </g>
   </g>
   <g id="PathCollection_2">
    <g clip-path="url(#p6d79925ae5)">
     <use xlink:href="#m2d807672b2" x="184.251577" y="121.947916" style="fill: #e45756; fill-opacity: 0.88; stroke: #222222; stroke-opacity: 0.88; stroke-width: 0.45"/>
    </g>
   </g>
   <g id="PathCollection_3">
    <g clip-path="url(#p6d79925ae5)">
     <use xlink:href="#m2d807672b2" x="250.130854" y="123.392763" style="fill: #e45756; fill-opacity: 0.88; stroke: #222222; stroke-opacity: 0.88; stroke-width: 0.45"/>
    </g>
   </g>
   <g id="PathCollection_4">
    <g clip-path="url(#p6d79925ae5)">
     <use xlink:href="#m2d807672b2" x="239.487727" y="128.449727" style="fill: #e45756; fill-opacity: 0.88; stroke: #222222; stroke-opacity: 0.88; stroke-width: 0.45"/>
    </g>
   </g>
   <g id="PathCollection_5">
    <g clip-path="url(#p6d79925ae5)">
     <use xlink:href="#m2d807672b2" x="287.882293" y="171.795138" style="fill: #e45756; fill-opacity: 0.88; stroke: #222222; stroke-opacity: 0.88; stroke-width: 0.45"/>
    </g>
   </g>
   <g id="PathCollection_6">
    <defs>
     <path id="m74aa57528e" d="M -2.645751 2.645751 
L 2.645751 2.645751 
L 2.645751 -2.645751 
L -2.645751 -2.645751 
z
" style="stroke: #222222; stroke-opacity: 0.88; stroke-width: 0.45"/>
    </defs>
    <g clip-path="url(#p6d79925ae5)">
     <use xlink:href="#m74aa57528e" x="148.927636" y="136.396386" style="fill: #4c78a8; fill-opacity: 0.88; stroke: #222222; stroke-opacity: 0.88; stroke-width: 0.45"/>
    </g>
   </g>
   <g id="PathCollection_7">
    <g clip-path="url(#p6d79925ae5)">
     <use xlink:href="#m74aa57528e" x="186.442551" y="124.83761" style="fill: #4c78a8; fill-opacity: 0.88; stroke: #222222; stroke-opacity: 0.88; stroke-width: 0.45"/>
    </g>
   </g>
   <g id="PathCollection_8">
    <g clip-path="url(#p6d79925ae5)">
     <use xlink:href="#m74aa57528e" x="199.054913" y="53.317682" style="fill: #4c78a8; fill-opacity: 0.88; stroke: #222222; stroke-opacity: 0.88; stroke-width: 0.45"/>
    </g>
   </g>
   <g id="PathCollection_9">
    <g clip-path="url(#p6d79925ae5)">
     <use xlink:href="#m74aa57528e" x="234.985537" y="107.499446" style="fill: #4c78a8; fill-opacity: 0.88; stroke: #222222; stroke-opacity: 0.88; stroke-width: 0.45"/>
    </g>
   </g>
   <g id="PathCollection_10">
    <g clip-path="url(#p6d79925ae5)">
     <use xlink:href="#m74aa57528e" x="220.806216" y="125.560033" style="fill: #4c78a8; fill-opacity: 0.88; stroke: #222222; stroke-opacity: 0.88; stroke-width: 0.45"/>
    </g>
   </g>
   <g id="PathCollection_11">
    <defs>
     <path id="md7b4d4e3e7" d="M 0 -2.645751 
L -2.645751 2.645751 
L 2.645751 2.645751 
z
" style="stroke: #222222; stroke-opacity: 0.88; stroke-width: 0.45"/>
    </defs>
    <g clip-path="url(#p6d79925ae5)">
     <use xlink:href="#md7b4d4e3e7" x="147.415586" y="139.28608" style="fill: #54a24b; fill-opacity: 0.88; stroke: #222222; stroke-opacity: 0.88; stroke-width: 0.45"/>
    </g>
   </g>
   <g id="PathCollection_12">
    <g clip-path="url(#p6d79925ae5)">
     <use xlink:href="#md7b4d4e3e7" x="189.019326" y="145.065468" style="fill: #54a24b; fill-opacity: 0.88; stroke: #222222; stroke-opacity: 0.88; stroke-width: 0.45"/>
    </g>
   </g>
   <g id="PathCollection_13">
    <g clip-path="url(#p6d79925ae5)">
     <use xlink:href="#md7b4d4e3e7" x="203.502613" y="134.229115" style="fill: #54a24b; fill-opacity: 0.88; stroke: #222222; stroke-opacity: 0.88; stroke-width: 0.45"/>
    </g>
   </g>
   <g id="PathCollection_14">
    <g clip-path="url(#p6d79925ae5)">
     <use xlink:href="#md7b4d4e3e7" x="185.911393" y="119.058222" style="fill: #54a24b; fill-opacity: 0.88; stroke: #222222; stroke-opacity: 0.88; stroke-width: 0.45"/>
    </g>
   </g>
   <g id="PathCollection_15">
    <g clip-path="url(#p6d79925ae5)">
     <use xlink:href="#md7b4d4e3e7" x="83.071218" y="202.859349" style="fill: #54a24b; fill-opacity: 0.88; stroke: #222222; stroke-opacity: 0.88; stroke-width: 0.45"/>
    </g>
   </g>
   <g id="matplotlib.axis_1">
    <g id="xtick_1">
     <g id="line2d_1">
      <path d="M 73.229498 235.758516 
L 73.229498 20.418516 
" clip-path="url(#p6d79925ae5)" style="fill: none; stroke: #b0b0b0; stroke-opacity: 0.22; stroke-width: 0.8; stroke-linecap: square"/>
     </g>
     <g id="line2d_2">
      <defs>
       <path id="mc4da2acc85" d="M 0 0 
L 0 3 
" style="stroke: #000000; stroke-width: 0.7"/>
      </defs>
      <g>
       <use xlink:href="#mc4da2acc85" x="73.229498" y="235.758516" style="stroke: #000000; stroke-width: 0.7"/>
      </g>
     </g>
     <g id="text_1">
      <!-- −1.0 -->
      <g transform="translate(64.002029 248.033328) scale(0.076 -0.076)">
       <defs>
        <path id="DejaVuSans-2212" d="M 678 2272 
L 4684 2272 
L 4684 1741 
L 678 1741 
L 678 2272 
z
" transform="scale(0.015625)"/>
        <path id="DejaVuSans-31" d="M 794 531 
L 1825 531 
L 1825 4091 
L 703 3866 
L 703 4441 
L 1819 4666 
L 2450 4666 
L 2450 531 
L 3481 531 
L 3481 0 
L 794 0 
L 794 531 
z
" transform="scale(0.015625)"/>
        <path id="DejaVuSans-2e" d="M 684 794 
L 1344 794 
L 1344 0 
L 684 0 
L 684 794 
z
" transform="scale(0.015625)"/>
        <path id="DejaVuSans-30" d="M 2034 4250 
Q 1547 4250 1301 3770 
Q 1056 3291 1056 2328 
Q 1056 1369 1301 889 
Q 1547 409 2034 409 
Q 2525 409 2770 889 
Q 3016 1369 3016 2328 
Q 3016 3291 2770 3770 
Q 2525 4250 2034 4250 
z
M 2034 4750 
Q 2819 4750 3233 4129 
Q 3647 3509 3647 2328 
Q 3647 1150 3233 529 
Q 2819 -91 2034 -91 
Q 1250 -91 836 529 
Q 422 1150 422 2328 
Q 422 3509 836 4129 
Q 1250 4750 2034 4750 
z
" transform="scale(0.015625)"/>
       </defs>
       <use xlink:href="#DejaVuSans-2212"/>
       <use xlink:href="#DejaVuSans-31" transform="translate(83.789062 0)"/>
       <use xlink:href="#DejaVuSans-2e" transform="translate(147.412109 0)"/>
       <use xlink:href="#DejaVuSans-30" transform="translate(179.199219 0)"/>
      </g>
     </g>
    </g>
    <g id="xtick_2">
     <g id="line2d_3">
      <path d="M 135.836627 235.758516 
L 135.836627 20.418516 
" clip-path="url(#p6d79925ae5)" style="fill: none; stroke: #b0b0b0; stroke-opacity: 0.22; stroke-width: 0.8; stroke-linecap: square"/>
     </g>
     <g id="line2d_4">
      <g>
       <use xlink:href="#mc4da2acc85" x="135.836627" y="235.758516" style="stroke: #000000; stroke-width: 0.7"/>
      </g>
     </g>
     <g id="text_2">
      <!-- −0.9 -->
      <g transform="translate(126.609159 248.033328) scale(0.076 -0.076)">
       <defs>
        <path id="DejaVuSans-39" d="M 703 97 
L 703 672 
Q 941 559 1184 500 
Q 1428 441 1663 441 
Q 2288 441 2617 861 
Q 2947 1281 2994 2138 
Q 2813 1869 2534 1725 
Q 2256 1581 1919 1581 
Q 1219 1581 811 2004 
Q 403 2428 403 3163 
Q 403 3881 828 4315 
Q 1253 4750 1959 4750 
Q 2769 4750 3195 4129 
Q 3622 3509 3622 2328 
Q 3622 1225 3098 567 
Q 2575 -91 1691 -91 
Q 1453 -91 1209 -44 
Q 966 3 703 97 
z
M 1959 2075 
Q 2384 2075 2632 2365 
Q 2881 2656 2881 3163 
Q 2881 3666 2632 3958 
Q 2384 4250 1959 4250 
Q 1534 4250 1286 3958 
Q 1038 3666 1038 3163 
Q 1038 2656 1286 2365 
Q 1534 2075 1959 2075 
z
" transform="scale(0.015625)"/>
       </defs>
       <use xlink:href="#DejaVuSans-2212"/>
       <use xlink:href="#DejaVuSans-30" transform="translate(83.789062 0)"/>
       <use xlink:href="#DejaVuSans-2e" transform="translate(147.412109 0)"/>
       <use xlink:href="#DejaVuSans-39" transform="translate(179.199219 0)"/>
      </g>
     </g>
    </g>
    <g id="xtick_3">
     <g id="line2d_5">
      <path d="M 198.443757 235.758516 
L 198.443757 20.418516 
" clip-path="url(#p6d79925ae5)" style="fill: none; stroke: #b0b0b0; stroke-opacity: 0.22; stroke-width: 0.8; stroke-linecap: square"/>
     </g>
     <g id="line2d_6">
      <g>
       <use xlink:href="#mc4da2acc85" x="198.443757" y="235.758516" style="stroke: #000000; stroke-width: 0.7"/>
      </g>
     </g>
     <g id="text_3">
      <!-- −0.8 -->
      <g transform="translate(189.216288 248.033328) scale(0.076 -0.076)">
       <defs>
        <path id="DejaVuSans-38" d="M 2034 2216 
Q 1584 2216 1326 1975 
Q 1069 1734 1069 1313 
Q 1069 891 1326 650 
Q 1584 409 2034 409 
Q 2484 409 2743 651 
Q 3003 894 3003 1313 
Q 3003 1734 2745 1975 
Q 2488 2216 2034 2216 
z
M 1403 2484 
Q 997 2584 770 2862 
Q 544 3141 544 3541 
Q 544 4100 942 4425 
Q 1341 4750 2034 4750 
Q 2731 4750 3128 4425 
Q 3525 4100 3525 3541 
Q 3525 3141 3298 2862 
Q 3072 2584 2669 2484 
Q 3125 2378 3379 2068 
Q 3634 1759 3634 1313 
Q 3634 634 3220 271 
Q 2806 -91 2034 -91 
Q 1263 -91 848 271 
Q 434 634 434 1313 
Q 434 1759 690 2068 
Q 947 2378 1403 2484 
z
M 1172 3481 
Q 1172 3119 1398 2916 
Q 1625 2713 2034 2713 
Q 2441 2713 2670 2916 
Q 2900 3119 2900 3481 
Q 2900 3844 2670 4047 
Q 2441 4250 2034 4250 
Q 1625 4250 1398 4047 
Q 1172 3844 1172 3481 
z
" transform="scale(0.015625)"/>
       </defs>
       <use xlink:href="#DejaVuSans-2212"/>
       <use xlink:href="#DejaVuSans-30" transform="translate(83.789062 0)"/>
       <use xlink:href="#DejaVuSans-2e" transform="translate(147.412109 0)"/>
       <use xlink:href="#DejaVuSans-38" transform="translate(179.199219 0)"/>
      </g>
     </g>
    </g>
    <g id="xtick_4">
     <g id="line2d_7">
      <path d="M 261.050886 235.758516 
L 261.050886 20.418516 
" clip-path="url(#p6d79925ae5)" style="fill: none; stroke: #b0b0b0; stroke-opacity: 0.22; stroke-width: 0.8; stroke-linecap: square"/>
     </g>
     <g id="line2d_8">
      <g>
       <use xlink:href="#mc4da2acc85" x="261.050886" y="235.758516" style="stroke: #000000; stroke-width: 0.7"/>
      </g>
     </g>
     <g id="text_4">
      <!-- −0.7 -->
      <g transform="translate(251.823417 248.033328) scale(0.076 -0.076)">
       <defs>
        <path id="DejaVuSans-37" d="M 525 4666 
L 3525 4666 
L 3525 4397 
L 1831 0 
L 1172 0 
L 2766 4134 
L 525 4134 
L 525 4666 
z
" transform="scale(0.015625)"/>
       </defs>
       <use xlink:href="#DejaVuSans-2212"/>
       <use xlink:href="#DejaVuSans-30" transform="translate(83.789062 0)"/>
       <use xlink:href="#DejaVuSans-2e" transform="translate(147.412109 0)"/>
       <use xlink:href="#DejaVuSans-37" transform="translate(179.199219 0)"/>
      </g>
     </g>
    </g>
    <g id="xtick_5">
     <g id="line2d_9">
      <path d="M 323.658015 235.758516 
L 323.658015 20.418516 
" clip-path="url(#p6d79925ae5)" style="fill: none; stroke: #b0b0b0; stroke-opacity: 0.22; stroke-width: 0.8; stroke-linecap: square"/>
     </g>
     <g id="line2d_10">
      <g>
       <use xlink:href="#mc4da2acc85" x="323.658015" y="235.758516" style="stroke: #000000; stroke-width: 0.7"/>
      </g>
     </g>
     <g id="text_5">
      <!-- −0.6 -->
      <g transform="translate(314.430546 248.033328) scale(0.076 -0.076)">
       <defs>
        <path id="DejaVuSans-36" d="M 2113 2584 
Q 1688 2584 1439 2293 
Q 1191 2003 1191 1497 
Q 1191 994 1439 701 
Q 1688 409 2113 409 
Q 2538 409 2786 701 
Q 3034 994 3034 1497 
Q 3034 2003 2786 2293 
Q 2538 2584 2113 2584 
z
M 3366 4563 
L 3366 3988 
Q 3128 4100 2886 4159 
Q 2644 4219 2406 4219 
Q 1781 4219 1451 3797 
Q 1122 3375 1075 2522 
Q 1259 2794 1537 2939 
Q 1816 3084 2150 3084 
Q 2853 3084 3261 2657 
Q 3669 2231 3669 1497 
Q 3669 778 3244 343 
Q 2819 -91 2113 -91 
Q 1303 -91 875 529 
Q 447 1150 447 2328 
Q 447 3434 972 4092 
Q 1497 4750 2381 4750 
Q 2619 4750 2861 4703 
Q 3103 4656 3366 4563 
z
" transform="scale(0.015625)"/>
       </defs>
       <use xlink:href="#DejaVuSans-2212"/>
       <use xlink:href="#DejaVuSans-30" transform="translate(83.789062 0)"/>
       <use xlink:href="#DejaVuSans-2e" transform="translate(147.412109 0)"/>
       <use xlink:href="#DejaVuSans-36" transform="translate(179.199219 0)"/>
      </g>
     </g>
    </g>
    <g id="text_6">
     <!-- Learned reward proxy, mean R_phi -->
     <g transform="translate(111.261794 260.072562) scale(0.085 -0.085)">
      <defs>
       <path id="DejaVuSans-4c" d="M 628 4666 
L 1259 4666 
L 1259 531 
L 3531 531 
L 3531 0 
L 628 0 
L 628 4666 
z
" transform="scale(0.015625)"/>
       <path id="DejaVuSans-65" d="M 3597 1894 
L 3597 1613 
L 953 1613 
Q 991 1019 1311 708 
Q 1631 397 2203 397 
Q 2534 397 2845 478 
Q 3156 559 3463 722 
L 3463 178 
Q 3153 47 2828 -22 
Q 2503 -91 2169 -91 
Q 1331 -91 842 396 
Q 353 884 353 1716 
Q 353 2575 817 3079 
Q 1281 3584 2069 3584 
Q 2775 3584 3186 3129 
Q 3597 2675 3597 1894 
z
M 3022 2063 
Q 3016 2534 2758 2815 
Q 2500 3097 2075 3097 
Q 1594 3097 1305 2825 
Q 1016 2553 972 2059 
L 3022 2063 
z
" transform="scale(0.015625)"/>
       <path id="DejaVuSans-61" d="M 2194 1759 
Q 1497 1759 1228 1600 
Q 959 1441 959 1056 
Q 959 750 1161 570 
Q 1363 391 1709 391 
Q 2188 391 2477 730 
Q 2766 1069 2766 1631 
L 2766 1759 
L 2194 1759 
z
M 3341 1997 
L 3341 0 
L 2766 0 
L 2766 531 
Q 2569 213 2275 61 
Q 1981 -91 1556 -91 
Q 1019 -91 701 211 
Q 384 513 384 1019 
Q 384 1609 779 1909 
Q 1175 2209 1959 2209 
L 2766 2209 
L 2766 2266 
Q 2766 2663 2505 2880 
Q 2244 3097 1772 3097 
Q 1472 3097 1187 3025 
Q 903 2953 641 2809 
L 641 3341 
Q 956 3463 1253 3523 
Q 1550 3584 1831 3584 
Q 2591 3584 2966 3190 
Q 3341 2797 3341 1997 
z
" transform="scale(0.015625)"/>
       <path id="DejaVuSans-72" d="M 2631 2963 
Q 2534 3019 2420 3045 
Q 2306 3072 2169 3072 
Q 1681 3072 1420 2755 
Q 1159 2438 1159 1844 
L 1159 0 
L 581 0 
L 581 3500 
L 1159 3500 
L 1159 2956 
Q 1341 3275 1631 3429 
Q 1922 3584 2338 3584 
Q 2397 3584 2469 3576 
Q 2541 3569 2628 3553 
L 2631 2963 
z
" transform="scale(0.015625)"/>
       <path id="DejaVuSans-6e" d="M 3513 2113 
L 3513 0 
L 2938 0 
L 2938 2094 
Q 2938 2591 2744 2837 
Q 2550 3084 2163 3084 
Q 1697 3084 1428 2787 
Q 1159 2491 1159 1978 
L 1159 0 
L 581 0 
L 581 3500 
L 1159 3500 
L 1159 2956 
Q 1366 3272 1645 3428 
Q 1925 3584 2291 3584 
Q 2894 3584 3203 3211 
Q 3513 2838 3513 2113 
z
" transform="scale(0.015625)"/>
       <path id="DejaVuSans-64" d="M 2906 2969 
L 2906 4863 
L 3481 4863 
L 3481 0 
L 2906 0 
L 2906 525 
Q 2725 213 2448 61 
Q 2172 -91 1784 -91 
Q 1150 -91 751 415 
Q 353 922 353 1747 
Q 353 2572 751 3078 
Q 1150 3584 1784 3584 
Q 2172 3584 2448 3432 
Q 2725 3281 2906 2969 
z
M 947 1747 
Q 947 1113 1208 752 
Q 1469 391 1925 391 
Q 2381 391 2643 752 
Q 2906 1113 2906 1747 
Q 2906 2381 2643 2742 
Q 2381 3103 1925 3103 
Q 1469 3103 1208 2742 
Q 947 2381 947 1747 
z
" transform="scale(0.015625)"/>
       <path id="DejaVuSans-20" transform="scale(0.015625)"/>
       <path id="DejaVuSans-77" d="M 269 3500 
L 844 3500 
L 1563 769 
L 2278 3500 
L 2956 3500 
L 3675 769 
L 4391 3500 
L 4966 3500 
L 4050 0 
L 3372 0 
L 2619 2869 
L 1863 0 
L 1184 0 
L 269 3500 
z
" transform="scale(0.015625)"/>
       <path id="DejaVuSans-70" d="M 1159 525 
L 1159 -1331 
L 581 -1331 
L 581 3500 
L 1159 3500 
L 1159 2969 
Q 1341 3281 1617 3432 
Q 1894 3584 2278 3584 
Q 2916 3584 3314 3078 
Q 3713 2572 3713 1747 
Q 3713 922 3314 415 
Q 2916 -91 2278 -91 
Q 1894 -91 1617 61 
Q 1341 213 1159 525 
z
M 3116 1747 
Q 3116 2381 2855 2742 
Q 2594 3103 2138 3103 
Q 1681 3103 1420 2742 
Q 1159 2381 1159 1747 
Q 1159 1113 1420 752 
Q 1681 391 2138 391 
Q 2594 391 2855 752 
Q 3116 1113 3116 1747 
z
" transform="scale(0.015625)"/>
       <path id="DejaVuSans-6f" d="M 1959 3097 
Q 1497 3097 1228 2736 
Q 959 2375 959 1747 
Q 959 1119 1226 758 
Q 1494 397 1959 397 
Q 2419 397 2687 759 
Q 2956 1122 2956 1747 
Q 2956 2369 2687 2733 
Q 2419 3097 1959 3097 
z
M 1959 3584 
Q 2709 3584 3137 3096 
Q 3566 2609 3566 1747 
Q 3566 888 3137 398 
Q 2709 -91 1959 -91 
Q 1206 -91 779 398 
Q 353 888 353 1747 
Q 353 2609 779 3096 
Q 1206 3584 1959 3584 
z
" transform="scale(0.015625)"/>
       <path id="DejaVuSans-78" d="M 3513 3500 
L 2247 1797 
L 3578 0 
L 2900 0 
L 1881 1375 
L 863 0 
L 184 0 
L 1544 1831 
L 300 3500 
L 978 3500 
L 1906 2253 
L 2834 3500 
L 3513 3500 
z
" transform="scale(0.015625)"/>
       <path id="DejaVuSans-79" d="M 2059 -325 
Q 1816 -950 1584 -1140 
Q 1353 -1331 966 -1331 
L 506 -1331 
L 506 -850 
L 844 -850 
Q 1081 -850 1212 -737 
Q 1344 -625 1503 -206 
L 1606 56 
L 191 3500 
L 800 3500 
L 1894 763 
L 2988 3500 
L 3597 3500 
L 2059 -325 
z
" transform="scale(0.015625)"/>
       <path id="DejaVuSans-2c" d="M 750 794 
L 1409 794 
L 1409 256 
L 897 -744 
L 494 -744 
L 750 256 
L 750 794 
z
" transform="scale(0.015625)"/>
       <path id="DejaVuSans-6d" d="M 3328 2828 
Q 3544 3216 3844 3400 
Q 4144 3584 4550 3584 
Q 5097 3584 5394 3201 
Q 5691 2819 5691 2113 
L 5691 0 
L 5113 0 
L 5113 2094 
Q 5113 2597 4934 2840 
Q 4756 3084 4391 3084 
Q 3944 3084 3684 2787 
Q 3425 2491 3425 1978 
L 3425 0 
L 2847 0 
L 2847 2094 
Q 2847 2600 2669 2842 
Q 2491 3084 2119 3084 
Q 1678 3084 1418 2786 
Q 1159 2488 1159 1978 
L 1159 0 
L 581 0 
L 581 3500 
L 1159 3500 
L 1159 2956 
Q 1356 3278 1631 3431 
Q 1906 3584 2284 3584 
Q 2666 3584 2933 3390 
Q 3200 3197 3328 2828 
z
" transform="scale(0.015625)"/>
       <path id="DejaVuSans-52" d="M 2841 2188 
Q 3044 2119 3236 1894 
Q 3428 1669 3622 1275 
L 4263 0 
L 3584 0 
L 2988 1197 
Q 2756 1666 2539 1819 
Q 2322 1972 1947 1972 
L 1259 1972 
L 1259 0 
L 628 0 
L 628 4666 
L 2053 4666 
Q 2853 4666 3247 4331 
Q 3641 3997 3641 3322 
Q 3641 2881 3436 2590 
Q 3231 2300 2841 2188 
z
M 1259 4147 
L 1259 2491 
L 2053 2491 
Q 2509 2491 2742 2702 
Q 2975 2913 2975 3322 
Q 2975 3731 2742 3939 
Q 2509 4147 2053 4147 
L 1259 4147 
z
" transform="scale(0.015625)"/>
       <path id="DejaVuSans-5f" d="M 3263 -1063 
L 3263 -1509 
L -63 -1509 
L -63 -1063 
L 3263 -1063 
z
" transform="scale(0.015625)"/>
       <path id="DejaVuSans-68" d="M 3513 2113 
L 3513 0 
L 2938 0 
L 2938 2094 
Q 2938 2591 2744 2837 
Q 2550 3084 2163 3084 
Q 1697 3084 1428 2787 
Q 1159 2491 1159 1978 
L 1159 0 
L 581 0 
L 581 4863 
L 1159 4863 
L 1159 2956 
Q 1366 3272 1645 3428 
Q 1925 3584 2291 3584 
Q 2894 3584 3203 3211 
Q 3513 2838 3513 2113 
z
" transform="scale(0.015625)"/>
       <path id="DejaVuSans-69" d="M 603 3500 
L 1178 3500 
L 1178 0 
L 603 0 
L 603 3500 
z
M 603 4863 
L 1178 4863 
L 1178 4134 
L 603 4134 
L 603 4863 
z
" transform="scale(0.015625)"/>
      </defs>
      <use xlink:href="#DejaVuSans-4c"/>
      <use xlink:href="#DejaVuSans-65" transform="translate(53.962891 0)"/>
      <use xlink:href="#DejaVuSans-61" transform="translate(115.486328 0)"/>
      <use xlink:href="#DejaVuSans-72" transform="translate(176.765625 0)"/>
      <use xlink:href="#DejaVuSans-6e" transform="translate(216.128906 0)"/>
      <use xlink:href="#DejaVuSans-65" transform="translate(279.507812 0)"/>
      <use xlink:href="#DejaVuSans-64" transform="translate(341.03125 0)"/>
      <use xlink:href="#DejaVuSans-20" transform="translate(404.507812 0)"/>
      <use xlink:href="#DejaVuSans-72" transform="translate(436.294922 0)"/>
      <use xlink:href="#DejaVuSans-65" transform="translate(475.158203 0)"/>
      <use xlink:href="#DejaVuSans-77" transform="translate(536.681641 0)"/>
      <use xlink:href="#DejaVuSans-61" transform="translate(618.46875 0)"/>
      <use xlink:href="#DejaVuSans-72" transform="translate(679.748047 0)"/>
      <use xlink:href="#DejaVuSans-64" transform="translate(719.111328 0)"/>
      <use xlink:href="#DejaVuSans-20" transform="translate(782.587891 0)"/>
      <use xlink:href="#DejaVuSans-70" transform="translate(814.375 0)"/>
      <use xlink:href="#DejaVuSans-72" transform="translate(877.851562 0)"/>
      <use xlink:href="#DejaVuSans-6f" transform="translate(916.714844 0)"/>
      <use xlink:href="#DejaVuSans-78" transform="translate(974.771484 0)"/>
      <use xlink:href="#DejaVuSans-79" transform="translate(1033.951172 0)"/>
      <use xlink:href="#DejaVuSans-2c" transform="translate(1093.130859 0)"/>
      <use xlink:href="#DejaVuSans-20" transform="translate(1124.917969 0)"/>
      <use xlink:href="#DejaVuSans-6d" transform="translate(1156.705078 0)"/>
      <use xlink:href="#DejaVuSans-65" transform="translate(1254.117188 0)"/>
      <use xlink:href="#DejaVuSans-61" transform="translate(1315.640625 0)"/>
      <use xlink:href="#DejaVuSans-6e" transform="translate(1376.919922 0)"/>
      <use xlink:href="#DejaVuSans-20" transform="translate(1440.298828 0)"/>
      <use xlink:href="#DejaVuSans-52" transform="translate(1472.085938 0)"/>
      <use xlink:href="#DejaVuSans-5f" transform="translate(1541.568359 0)"/>
      <use xlink:href="#DejaVuSans-70" transform="translate(1591.568359 0)"/>
      <use xlink:href="#DejaVuSans-68" transform="translate(1655.044922 0)"/>
      <use xlink:href="#DejaVuSans-69" transform="translate(1718.423828 0)"/>
     </g>
    </g>
   </g>
   <g id="matplotlib.axis_2">
    <g id="ytick_1">
     <g id="line2d_11">
      <path d="M 38.012781 200.258624 
L 332.940729 200.258624 
" clip-path="url(#p6d79925ae5)" style="fill: none; stroke: #b0b0b0; stroke-opacity: 0.22; stroke-width: 0.8; stroke-linecap: square"/>
     </g>
     <g id="line2d_12">
      <defs>
       <path id="m8ae02d96ed" d="M 0 0 
L -3 0 
" style="stroke: #000000; stroke-width: 0.7"/>
      </defs>
      <g>
       <use xlink:href="#m8ae02d96ed" x="38.012781" y="200.258624" style="stroke: #000000; stroke-width: 0.7"/>
      </g>
     </g>
     <g id="text_7">
      <!-- 2.6 -->
      <g transform="translate(19.426406 203.146031) scale(0.076 -0.076)">
       <defs>
        <path id="DejaVuSans-32" d="M 1228 531 
L 3431 531 
L 3431 0 
L 469 0 
L 469 531 
Q 828 903 1448 1529 
Q 2069 2156 2228 2338 
Q 2531 2678 2651 2914 
Q 2772 3150 2772 3378 
Q 2772 3750 2511 3984 
Q 2250 4219 1831 4219 
Q 1534 4219 1204 4116 
Q 875 4013 500 3803 
L 500 4441 
Q 881 4594 1212 4672 
Q 1544 4750 1819 4750 
Q 2544 4750 2975 4387 
Q 3406 4025 3406 3419 
Q 3406 3131 3298 2873 
Q 3191 2616 2906 2266 
Q 2828 2175 2409 1742 
Q 1991 1309 1228 531 
z
" transform="scale(0.015625)"/>
       </defs>
       <use xlink:href="#DejaVuSans-32"/>
       <use xlink:href="#DejaVuSans-2e" transform="translate(63.623047 0)"/>
       <use xlink:href="#DejaVuSans-36" transform="translate(95.410156 0)"/>
      </g>
     </g>
    </g>
    <g id="ytick_2">
     <g id="line2d_13">
      <path d="M 38.012781 163.270541 
L 332.940729 163.270541 
" clip-path="url(#p6d79925ae5)" style="fill: none; stroke: #b0b0b0; stroke-opacity: 0.22; stroke-width: 0.8; stroke-linecap: square"/>
     </g>
     <g id="line2d_14">
      <g>
       <use xlink:href="#m8ae02d96ed" x="38.012781" y="163.270541" style="stroke: #000000; stroke-width: 0.7"/>
      </g>
     </g>
     <g id="text_8">
      <!-- 2.8 -->
      <g transform="translate(19.426406 166.157947) scale(0.076 -0.076)">
       <use xlink:href="#DejaVuSans-32"/>
       <use xlink:href="#DejaVuSans-2e" transform="translate(63.623047 0)"/>
       <use xlink:href="#DejaVuSans-38" transform="translate(95.410156 0)"/>
      </g>
     </g>
    </g>
    <g id="ytick_3">
     <g id="line2d_15">
      <path d="M 38.012781 126.282457 
L 332.940729 126.282457 
" clip-path="url(#p6d79925ae5)" style="fill: none; stroke: #b0b0b0; stroke-opacity: 0.22; stroke-width: 0.8; stroke-linecap: square"/>
     </g>
     <g id="line2d_16">
      <g>
       <use xlink:href="#m8ae02d96ed" x="38.012781" y="126.282457" style="stroke: #000000; stroke-width: 0.7"/>
      </g>
     </g>
     <g id="text_9">
      <!-- 3.0 -->
      <g transform="translate(19.426406 129.169863) scale(0.076 -0.076)">
       <defs>
        <path id="DejaVuSans-33" d="M 2597 2516 
Q 3050 2419 3304 2112 
Q 3559 1806 3559 1356 
Q 3559 666 3084 287 
Q 2609 -91 1734 -91 
Q 1441 -91 1130 -33 
Q 819 25 488 141 
L 488 750 
Q 750 597 1062 519 
Q 1375 441 1716 441 
Q 2309 441 2620 675 
Q 2931 909 2931 1356 
Q 2931 1769 2642 2001 
Q 2353 2234 1838 2234 
L 1294 2234 
L 1294 2753 
L 1863 2753 
Q 2328 2753 2575 2939 
Q 2822 3125 2822 3475 
Q 2822 3834 2567 4026 
Q 2313 4219 1838 4219 
Q 1578 4219 1281 4162 
Q 984 4106 628 3988 
L 628 4550 
Q 988 4650 1302 4700 
Q 1616 4750 1894 4750 
Q 2613 4750 3031 4423 
Q 3450 4097 3450 3541 
Q 3450 3153 3228 2886 
Q 3006 2619 2597 2516 
z
" transform="scale(0.015625)"/>
       </defs>
       <use xlink:href="#DejaVuSans-33"/>
       <use xlink:href="#DejaVuSans-2e" transform="translate(63.623047 0)"/>
       <use xlink:href="#DejaVuSans-30" transform="translate(95.410156 0)"/>
      </g>
     </g>
    </g>
    <g id="ytick_4">
     <g id="line2d_17">
      <path d="M 38.012781 89.294373 
L 332.940729 89.294373 
" clip-path="url(#p6d79925ae5)" style="fill: none; stroke: #b0b0b0; stroke-opacity: 0.22; stroke-width: 0.8; stroke-linecap: square"/>
     </g>
     <g id="line2d_18">
      <g>
       <use xlink:href="#m8ae02d96ed" x="38.012781" y="89.294373" style="stroke: #000000; stroke-width: 0.7"/>
      </g>
     </g>
     <g id="text_10">
      <!-- 3.2 -->
      <g transform="translate(19.426406 92.181779) scale(0.076 -0.076)">
       <use xlink:href="#DejaVuSans-33"/>
       <use xlink:href="#DejaVuSans-2e" transform="translate(63.623047 0)"/>
       <use xlink:href="#DejaVuSans-32" transform="translate(95.410156 0)"/>
      </g>
     </g>
    </g>
    <g id="ytick_5">
     <g id="line2d_19">
      <path d="M 38.012781 52.306289 
L 332.940729 52.306289 
" clip-path="url(#p6d79925ae5)" style="fill: none; stroke: #b0b0b0; stroke-opacity: 0.22; stroke-width: 0.8; stroke-linecap: square"/>
     </g>
     <g id="line2d_20">
      <g>
       <use xlink:href="#m8ae02d96ed" x="38.012781" y="52.306289" style="stroke: #000000; stroke-width: 0.7"/>
      </g>
     </g>
     <g id="text_11">
      <!-- 3.4 -->
      <g transform="translate(19.426406 55.193696) scale(0.076 -0.076)">
       <defs>
        <path id="DejaVuSans-34" d="M 2419 4116 
L 825 1625 
L 2419 1625 
L 2419 4116 
z
M 2253 4666 
L 3047 4666 
L 3047 1625 
L 3713 1625 
L 3713 1100 
L 3047 1100 
L 3047 0 
L 2419 0 
L 2419 1100 
L 313 1100 
L 313 1709 
L 2253 4666 
z
" transform="scale(0.015625)"/>
       </defs>
       <use xlink:href="#DejaVuSans-33"/>
       <use xlink:href="#DejaVuSans-2e" transform="translate(63.623047 0)"/>
       <use xlink:href="#DejaVuSans-34" transform="translate(95.410156 0)"/>
      </g>
     </g>
    </g>
    <g id="text_12">
     <!-- Two-judge helpfulness mean -->
     <g transform="translate(13.658672 188.605859) rotate(-90) scale(0.085 -0.085)">
      <defs>
       <path id="DejaVuSans-54" d="M -19 4666 
L 3928 4666 
L 3928 4134 
L 2272 4134 
L 2272 0 
L 1638 0 
L 1638 4134 
L -19 4134 
L -19 4666 
z
" transform="scale(0.015625)"/>
       <path id="DejaVuSans-2d" d="M 313 2009 
L 1997 2009 
L 1997 1497 
L 313 1497 
L 313 2009 
z
" transform="scale(0.015625)"/>
       <path id="DejaVuSans-6a" d="M 603 3500 
L 1178 3500 
L 1178 -63 
Q 1178 -731 923 -1031 
Q 669 -1331 103 -1331 
L -116 -1331 
L -116 -844 
L 38 -844 
Q 366 -844 484 -692 
Q 603 -541 603 -63 
L 603 3500 
z
M 603 4863 
L 1178 4863 
L 1178 4134 
L 603 4134 
L 603 4863 
z
" transform="scale(0.015625)"/>
       <path id="DejaVuSans-75" d="M 544 1381 
L 544 3500 
L 1119 3500 
L 1119 1403 
Q 1119 906 1312 657 
Q 1506 409 1894 409 
Q 2359 409 2629 706 
Q 2900 1003 2900 1516 
L 2900 3500 
L 3475 3500 
L 3475 0 
L 2900 0 
L 2900 538 
Q 2691 219 2414 64 
Q 2138 -91 1772 -91 
Q 1169 -91 856 284 
Q 544 659 544 1381 
z
M 1991 3584 
L 1991 3584 
z
" transform="scale(0.015625)"/>
       <path id="DejaVuSans-67" d="M 2906 1791 
Q 2906 2416 2648 2759 
Q 2391 3103 1925 3103 
Q 1463 3103 1205 2759 
Q 947 2416 947 1791 
Q 947 1169 1205 825 
Q 1463 481 1925 481 
Q 2391 481 2648 825 
Q 2906 1169 2906 1791 
z
M 3481 434 
Q 3481 -459 3084 -895 
Q 2688 -1331 1869 -1331 
Q 1566 -1331 1297 -1286 
Q 1028 -1241 775 -1147 
L 775 -588 
Q 1028 -725 1275 -790 
Q 1522 -856 1778 -856 
Q 2344 -856 2625 -561 
Q 2906 -266 2906 331 
L 2906 616 
Q 2728 306 2450 153 
Q 2172 0 1784 0 
Q 1141 0 747 490 
Q 353 981 353 1791 
Q 353 2603 747 3093 
Q 1141 3584 1784 3584 
Q 2172 3584 2450 3431 
Q 2728 3278 2906 2969 
L 2906 3500 
L 3481 3500 
L 3481 434 
z
" transform="scale(0.015625)"/>
       <path id="DejaVuSans-6c" d="M 603 4863 
L 1178 4863 
L 1178 0 
L 603 0 
L 603 4863 
z
" transform="scale(0.015625)"/>
       <path id="DejaVuSans-66" d="M 2375 4863 
L 2375 4384 
L 1825 4384 
Q 1516 4384 1395 4259 
Q 1275 4134 1275 3809 
L 1275 3500 
L 2222 3500 
L 2222 3053 
L 1275 3053 
L 1275 0 
L 697 0 
L 697 3053 
L 147 3053 
L 147 3500 
L 697 3500 
L 697 3744 
Q 697 4328 969 4595 
Q 1241 4863 1831 4863 
L 2375 4863 
z
" transform="scale(0.015625)"/>
       <path id="DejaVuSans-73" d="M 2834 3397 
L 2834 2853 
Q 2591 2978 2328 3040 
Q 2066 3103 1784 3103 
Q 1356 3103 1142 2972 
Q 928 2841 928 2578 
Q 928 2378 1081 2264 
Q 1234 2150 1697 2047 
L 1894 2003 
Q 2506 1872 2764 1633 
Q 3022 1394 3022 966 
Q 3022 478 2636 193 
Q 2250 -91 1575 -91 
Q 1294 -91 989 -36 
Q 684 19 347 128 
L 347 722 
Q 666 556 975 473 
Q 1284 391 1588 391 
Q 1994 391 2212 530 
Q 2431 669 2431 922 
Q 2431 1156 2273 1281 
Q 2116 1406 1581 1522 
L 1381 1569 
Q 847 1681 609 1914 
Q 372 2147 372 2553 
Q 372 3047 722 3315 
Q 1072 3584 1716 3584 
Q 2034 3584 2315 3537 
Q 2597 3491 2834 3397 
z
" transform="scale(0.015625)"/>
      </defs>
      <use xlink:href="#DejaVuSans-54"/>
      <use xlink:href="#DejaVuSans-77" transform="translate(44.583984 0)"/>
      <use xlink:href="#DejaVuSans-6f" transform="translate(126.371094 0)"/>
      <use xlink:href="#DejaVuSans-2d" transform="translate(189.427734 0)"/>
      <use xlink:href="#DejaVuSans-6a" transform="translate(225.511719 0)"/>
      <use xlink:href="#DejaVuSans-75" transform="translate(253.294922 0)"/>
      <use xlink:href="#DejaVuSans-64" transform="translate(316.673828 0)"/>
      <use xlink:href="#DejaVuSans-67" transform="translate(380.150391 0)"/>
      <use xlink:href="#DejaVuSans-65" transform="translate(443.626953 0)"/>
      <use xlink:href="#DejaVuSans-20" transform="translate(505.150391 0)"/>
      <use xlink:href="#DejaVuSans-68" transform="translate(536.9375 0)"/>
      <use xlink:href="#DejaVuSans-65" transform="translate(600.316406 0)"/>
      <use xlink:href="#DejaVuSans-6c" transform="translate(661.839844 0)"/>
      <use xlink:href="#DejaVuSans-70" transform="translate(689.623047 0)"/>
      <use xlink:href="#DejaVuSans-66" transform="translate(753.099609 0)"/>
      <use xlink:href="#DejaVuSans-75" transform="translate(788.304688 0)"/>
      <use xlink:href="#DejaVuSans-6c" transform="translate(851.683594 0)"/>
      <use xlink:href="#DejaVuSans-6e" transform="translate(879.466797 0)"/>
      <use xlink:href="#DejaVuSans-65" transform="translate(942.845703 0)"/>
      <use xlink:href="#DejaVuSans-73" transform="translate(1004.369141 0)"/>
      <use xlink:href="#DejaVuSans-73" transform="translate(1056.46875 0)"/>
      <use xlink:href="#DejaVuSans-20" transform="translate(1108.568359 0)"/>
      <use xlink:href="#DejaVuSans-6d" transform="translate(1140.355469 0)"/>
      <use xlink:href="#DejaVuSans-65" transform="translate(1237.767578 0)"/>
      <use xlink:href="#DejaVuSans-61" transform="translate(1299.291016 0)"/>
      <use xlink:href="#DejaVuSans-6e" transform="translate(1360.570312 0)"/>
     </g>
    </g>
   </g>
   <g id="patch_3">
    <path d="M 38.012781 235.758516 
L 38.012781 20.418516 
" style="fill: none; stroke: #000000; stroke-width: 0.8; stroke-linejoin: miter; stroke-linecap: square"/>
   </g>
   <g id="patch_4">
    <path d="M 38.012781 235.758516 
L 332.940729 235.758516 
" style="fill: none; stroke: #000000; stroke-width: 0.8; stroke-linejoin: miter; stroke-linecap: square"/>
   </g>
   <g id="patch_5">
    <path d="M 196.509689 133.15113 
Q 200.41819 132.716852 204.32669 132.282574 
" style="fill: none; opacity: 0.55; stroke: #777777; stroke-width: 0.35; stroke-linecap: round"/>
   </g>
   <g id="text_13">
    <g id="patch_6">
     <path d="M 181.91894 138.108017 
L 194.707565 138.108017 
Q 195.511565 138.108017 195.511565 137.304017 
L 195.511565 130.819673 
Q 195.511565 130.015673 194.707565 130.015673 
L 181.91894 130.015673 
Q 181.11494 130.015673 181.11494 130.819673 
L 181.11494 137.304017 
Q 181.11494 138.108017 181.91894 138.108017 
z
" style="fill: #ffffff; opacity: 0.78"/>
    </g>
    <!-- 200 -->
    <g style="fill: #222222" transform="translate(181.91894 135.910626) scale(0.067 -0.067)">
     <use xlink:href="#DejaVuSans-32"/>
     <use xlink:href="#DejaVuSans-30" transform="translate(63.623047 0)"/>
     <use xlink:href="#DejaVuSans-30" transform="translate(127.246094 0)"/>
    </g>
   </g>
   <g id="patch_7">
    <path d="M 176.72722 116.573375 
Q 179.675607 118.679366 182.623994 120.785356 
" style="fill: none; opacity: 0.55; stroke: #777777; stroke-width: 0.35; stroke-linecap: round"/>
   </g>
   <g id="text_14">
    <g id="patch_8">
     <path d="M 163.857265 115.994088 
L 176.64589 115.994088 
Q 177.44989 115.994088 177.44989 115.190088 
L 177.44989 108.705744 
Q 177.44989 107.901744 176.64589 107.901744 
L 163.857265 107.901744 
Q 163.053265 107.901744 163.053265 108.705744 
L 163.053265 115.190088 
Q 163.053265 115.994088 163.857265 115.994088 
z
" style="fill: #ffffff; opacity: 0.78"/>
    </g>
    <!-- 400 -->
    <g style="fill: #222222" transform="translate(163.857265 113.796697) scale(0.067 -0.067)">
     <use xlink:href="#DejaVuSans-34"/>
     <use xlink:href="#DejaVuSans-30" transform="translate(63.623047 0)"/>
     <use xlink:href="#DejaVuSans-30" transform="translate(127.246094 0)"/>
    </g>
   </g>
   <g id="patch_9">
    <path d="M 254.265524 130.480768 
Q 252.7019 127.80027 251.138276 125.119772 
" style="fill: none; opacity: 0.55; stroke: #777777; stroke-width: 0.35; stroke-linecap: round"/>
   </g>
   <g id="text_15">
    <g id="patch_10">
     <path d="M 250.736542 139.438935 
L 263.525167 139.438935 
Q 264.329167 139.438935 264.329167 138.634935 
L 264.329167 132.150591 
Q 264.329167 131.346591 263.525167 131.346591 
L 250.736542 131.346591 
Q 249.932542 131.346591 249.932542 132.150591 
L 249.932542 138.634935 
Q 249.932542 139.438935 250.736542 139.438935 
z
" style="fill: #ffffff; opacity: 0.78"/>
    </g>
    <!-- 600 -->
    <g style="fill: #222222" transform="translate(250.736542 137.241544) scale(0.067 -0.067)">
     <use xlink:href="#DejaVuSans-36"/>
     <use xlink:href="#DejaVuSans-30" transform="translate(63.623047 0)"/>
     <use xlink:href="#DejaVuSans-30" transform="translate(127.246094 0)"/>
    </g>
   </g>
   <g id="patch_11">
    <path d="M 225.493954 122.618989 
Q 231.566691 125.149296 237.639429 127.679603 
" style="fill: none; opacity: 0.55; stroke: #777777; stroke-width: 0.35; stroke-linecap: round"/>
   </g>
   <g id="text_16">
    <g id="patch_12">
     <path d="M 206.961977 122.495899 
L 224.013477 122.495899 
Q 224.817477 122.495899 224.817477 121.691899 
L 224.817477 115.207556 
Q 224.817477 114.403556 224.013477 114.403556 
L 206.961977 114.403556 
Q 206.157977 114.403556 206.157977 115.207556 
L 206.157977 121.691899 
Q 206.157977 122.495899 206.961977 122.495899 
z
" style="fill: #ffffff; opacity: 0.78"/>
    </g>
    <!-- 1000 -->
    <g style="fill: #222222" transform="translate(206.961977 120.298509) scale(0.067 -0.067)">
     <use xlink:href="#DejaVuSans-31"/>
     <use xlink:href="#DejaVuSans-30" transform="translate(63.623047 0)"/>
     <use xlink:href="#DejaVuSans-30" transform="translate(127.246094 0)"/>
     <use xlink:href="#DejaVuSans-30" transform="translate(190.869141 0)"/>
    </g>
   </g>
   <g id="patch_13">
    <path d="M 293.075863 180.883887 
Q 290.975485 177.208224 288.875107 173.532562 
" style="fill: none; opacity: 0.55; stroke: #777777; stroke-width: 0.35; stroke-linecap: round"/>
   </g>
   <g id="text_17">
    <g id="patch_14">
     <path d="M 287.356543 189.84131 
L 304.408043 189.84131 
Q 305.212043 189.84131 305.212043 189.03731 
L 305.212043 182.552966 
Q 305.212043 181.748966 304.408043 181.748966 
L 287.356543 181.748966 
Q 286.552543 181.748966 286.552543 182.552966 
L 286.552543 189.03731 
Q 286.552543 189.84131 287.356543 189.84131 
z
" style="fill: #ffffff; opacity: 0.78"/>
    </g>
    <!-- 1200 -->
    <g style="fill: #222222" transform="translate(287.356543 187.643919) scale(0.067 -0.067)">
     <use xlink:href="#DejaVuSans-31"/>
     <use xlink:href="#DejaVuSans-32" transform="translate(63.623047 0)"/>
     <use xlink:href="#DejaVuSans-30" transform="translate(127.246094 0)"/>
     <use xlink:href="#DejaVuSans-30" transform="translate(190.869141 0)"/>
    </g>
   </g>
   <g id="patch_15">
    <path d="M 152.667417 132.189132 
Q 151.461301 133.546012 150.255185 134.902893 
" style="fill: none; opacity: 0.55; stroke: #777777; stroke-width: 0.35; stroke-linecap: round"/>
   </g>
   <g id="text_18">
    <g id="patch_16">
     <path d="M 150.533323 131.442558 
L 163.321948 131.442558 
Q 164.125948 131.442558 164.125948 130.638558 
L 164.125948 124.154214 
Q 164.125948 123.350214 163.321948 123.350214 
L 150.533323 123.350214 
Q 149.729323 123.350214 149.729323 124.154214 
L 149.729323 130.638558 
Q 149.729323 131.442558 150.533323 131.442558 
z
" style="fill: #ffffff; opacity: 0.78"/>
    </g>
    <!-- 200 -->
    <g style="fill: #222222" transform="translate(150.533323 129.245167) scale(0.067 -0.067)">
     <use xlink:href="#DejaVuSans-32"/>
     <use xlink:href="#DejaVuSans-30" transform="translate(63.623047 0)"/>
     <use xlink:href="#DejaVuSans-30" transform="translate(127.246094 0)"/>
    </g>
   </g>
   <g id="patch_17">
    <path d="M 169.512279 132.964141 
Q 177.074274 129.334383 184.636269 125.704625 
" style="fill: none; opacity: 0.55; stroke: #777777; stroke-width: 0.35; stroke-linecap: round"/>
   </g>
   <g id="text_19">
    <g id="patch_18">
     <path d="M 155.048239 140.883782 
L 167.836864 140.883782 
Q 168.640864 140.883782 168.640864 140.079782 
L 168.640864 133.595438 
Q 168.640864 132.791438 167.836864 132.791438 
L 155.048239 132.791438 
Q 154.244239 132.791438 154.244239 133.595438 
L 154.244239 140.079782 
Q 154.244239 140.883782 155.048239 140.883782 
z
" style="fill: #ffffff; opacity: 0.78"/>
    </g>
    <!-- 400 -->
    <g style="fill: #222222" transform="translate(155.048239 138.686391) scale(0.067 -0.067)">
     <use xlink:href="#DejaVuSans-34"/>
     <use xlink:href="#DejaVuSans-30" transform="translate(63.623047 0)"/>
     <use xlink:href="#DejaVuSans-30" transform="translate(127.246094 0)"/>
    </g>
   </g>
   <g id="patch_19">
    <path d="M 204.423349 46.159768 
Q 202.3381 48.9401 200.25285 51.720433 
" style="fill: none; opacity: 0.55; stroke: #777777; stroke-width: 0.35; stroke-linecap: round"/>
   </g>
   <g id="text_20">
    <g id="patch_20">
     <path d="M 201.660601 45.363854 
L 214.449226 45.363854 
Q 215.253226 45.363854 215.253226 44.559854 
L 215.253226 38.07551 
Q 215.253226 37.27151 214.449226 37.27151 
L 201.660601 37.27151 
Q 200.856601 37.27151 200.856601 38.07551 
L 200.856601 44.559854 
Q 200.856601 45.363854 201.660601 45.363854 
z
" style="fill: #ffffff; opacity: 0.78"/>
    </g>
    <!-- 600 -->
    <g style="fill: #222222" transform="translate(201.660601 43.166464) scale(0.067 -0.067)">
     <use xlink:href="#DejaVuSans-36"/>
     <use xlink:href="#DejaVuSans-30" transform="translate(63.623047 0)"/>
     <use xlink:href="#DejaVuSans-30" transform="translate(127.246094 0)"/>
    </g>
   </g>
   <g id="patch_21">
    <path d="M 215.309717 106.187724 
Q 224.150866 106.777134 232.992015 107.366544 
" style="fill: none; opacity: 0.55; stroke: #777777; stroke-width: 0.35; stroke-linecap: round"/>
   </g>
   <g id="text_21">
    <g id="patch_22">
     <path d="M 196.459787 109.545617 
L 213.511287 109.545617 
Q 214.315287 109.545617 214.315287 108.741617 
L 214.315287 102.257274 
Q 214.315287 101.453274 213.511287 101.453274 
L 196.459787 101.453274 
Q 195.655787 101.453274 195.655787 102.257274 
L 195.655787 108.741617 
Q 195.655787 109.545617 196.459787 109.545617 
z
" style="fill: #ffffff; opacity: 0.78"/>
    </g>
    <!-- 1000 -->
    <g style="fill: #222222" transform="translate(196.459787 107.348227) scale(0.067 -0.067)">
     <use xlink:href="#DejaVuSans-31"/>
     <use xlink:href="#DejaVuSans-30" transform="translate(63.623047 0)"/>
     <use xlink:href="#DejaVuSans-30" transform="translate(127.246094 0)"/>
     <use xlink:href="#DejaVuSans-30" transform="translate(190.869141 0)"/>
    </g>
   </g>
   <g id="patch_23">
    <path d="M 228.826236 127.34226 
Q 225.793274 126.668268 222.760313 125.994277 
" style="fill: none; opacity: 0.55; stroke: #777777; stroke-width: 0.35; stroke-linecap: round"/>
   </g>
   <g id="text_22">
    <g id="patch_24">
     <path d="M 221.280466 131.606205 
L 238.331966 131.606205 
Q 239.135966 131.606205 239.135966 130.802205 
L 239.135966 124.317861 
Q 239.135966 123.513861 238.331966 123.513861 
L 221.280466 123.513861 
Q 220.476466 123.513861 220.476466 124.317861 
L 220.476466 130.802205 
Q 220.476466 131.606205 221.280466 131.606205 
z
" style="fill: #ffffff; opacity: 0.78"/>
    </g>
    <!-- 1200 -->
    <g style="fill: #222222" transform="translate(221.280466 129.408815) scale(0.067 -0.067)">
     <use xlink:href="#DejaVuSans-31"/>
     <use xlink:href="#DejaVuSans-32" transform="translate(63.623047 0)"/>
     <use xlink:href="#DejaVuSans-30" transform="translate(127.246094 0)"/>
     <use xlink:href="#DejaVuSans-30" transform="translate(190.869141 0)"/>
    </g>
   </g>
   <g id="patch_25">
    <path d="M 127.559163 146.37766 
Q 136.545697 143.168183 145.532231 139.958707 
" style="fill: none; opacity: 0.55; stroke: #777777; stroke-width: 0.35; stroke-linecap: round"/>
   </g>
   <g id="text_23">
    <g id="patch_26">
     <path d="M 113.021273 153.332252 
L 125.809898 153.332252 
Q 126.613898 153.332252 126.613898 152.528252 
L 126.613898 146.043908 
Q 126.613898 145.239908 125.809898 145.239908 
L 113.021273 145.239908 
Q 112.217273 145.239908 112.217273 146.043908 
L 112.217273 152.528252 
Q 112.217273 153.332252 113.021273 153.332252 
z
" style="fill: #ffffff; opacity: 0.78"/>
    </g>
    <!-- 200 -->
    <g style="fill: #222222" transform="translate(113.021273 151.134861) scale(0.067 -0.067)">
     <use xlink:href="#DejaVuSans-32"/>
     <use xlink:href="#DejaVuSans-30" transform="translate(63.623047 0)"/>
     <use xlink:href="#DejaVuSans-30" transform="translate(127.246094 0)"/>
    </g>
   </g>
   <g id="patch_27">
    <path d="M 194.877719 154.178525 
Q 192.48988 150.464109 190.102041 146.749693 
" style="fill: none; opacity: 0.55; stroke: #777777; stroke-width: 0.35; stroke-linecap: round"/>
   </g>
   <g id="text_24">
    <g id="patch_28">
     <path d="M 191.625013 163.11164 
L 204.413638 163.11164 
Q 205.217638 163.11164 205.217638 162.30764 
L 205.217638 155.823296 
Q 205.217638 155.019296 204.413638 155.019296 
L 191.625013 155.019296 
Q 190.821013 155.019296 190.821013 155.823296 
L 190.821013 162.30764 
Q 190.821013 163.11164 191.625013 163.11164 
z
" style="fill: #ffffff; opacity: 0.78"/>
    </g>
    <!-- 400 -->
    <g style="fill: #222222" transform="translate(191.625013 160.914249) scale(0.067 -0.067)">
     <use xlink:href="#DejaVuSans-34"/>
     <use xlink:href="#DejaVuSans-30" transform="translate(63.623047 0)"/>
     <use xlink:href="#DejaVuSans-30" transform="translate(127.246094 0)"/>
    </g>
   </g>
   <g id="patch_29">
    <path d="M 183.666501 128.561655 
Q 192.62205 131.120383 201.577599 133.679112 
" style="fill: none; opacity: 0.55; stroke: #777777; stroke-width: 0.35; stroke-linecap: round"/>
   </g>
   <g id="text_25">
    <g id="patch_30">
     <path d="M 169.1083 130.275287 
L 181.896925 130.275287 
Q 182.700925 130.275287 182.700925 129.471287 
L 182.700925 122.986944 
Q 182.700925 122.182944 181.896925 122.182944 
L 169.1083 122.182944 
Q 168.3043 122.182944 168.3043 122.986944 
L 168.3043 129.471287 
Q 168.3043 130.275287 169.1083 130.275287 
z
" style="fill: #ffffff; opacity: 0.78"/>
    </g>
    <!-- 600 -->
    <g style="fill: #222222" transform="translate(169.1083 128.077897) scale(0.067 -0.067)">
     <use xlink:href="#DejaVuSans-36"/>
     <use xlink:href="#DejaVuSans-30" transform="translate(63.623047 0)"/>
     <use xlink:href="#DejaVuSans-30" transform="translate(127.246094 0)"/>
    </g>
   </g>
   <g id="patch_31">
    <path d="M 190.049368 113.885753 
Q 188.605724 115.690308 187.16208 117.494863 
" style="fill: none; opacity: 0.55; stroke: #777777; stroke-width: 0.35; stroke-linecap: round"/>
   </g>
   <g id="text_26">
    <g id="patch_32">
     <path d="M 185.385643 113.104394 
L 202.437143 113.104394 
Q 203.241143 113.104394 203.241143 112.300394 
L 203.241143 105.81605 
Q 203.241143 105.01205 202.437143 105.01205 
L 185.385643 105.01205 
Q 184.581643 105.01205 184.581643 105.81605 
L 184.581643 112.300394 
Q 184.581643 113.104394 185.385643 113.104394 
z
" style="fill: #ffffff; opacity: 0.78"/>
    </g>
    <!-- 1000 -->
    <g style="fill: #222222" transform="translate(185.385643 110.907003) scale(0.067 -0.067)">
     <use xlink:href="#DejaVuSans-31"/>
     <use xlink:href="#DejaVuSans-30" transform="translate(63.623047 0)"/>
     <use xlink:href="#DejaVuSans-30" transform="translate(127.246094 0)"/>
     <use xlink:href="#DejaVuSans-30" transform="translate(190.869141 0)"/>
    </g>
   </g>
   <g id="patch_33">
    <path d="M 87.817269 209.978425 
Q 85.999262 207.251416 84.181256 204.524406 
" style="fill: none; opacity: 0.55; stroke: #777777; stroke-width: 0.35; stroke-linecap: round"/>
   </g>
   <g id="text_27">
    <g id="patch_34">
     <path d="M 82.545468 218.905521 
L 99.596968 218.905521 
Q 100.400968 218.905521 100.400968 218.101521 
L 100.400968 211.617177 
Q 100.400968 210.813177 99.596968 210.813177 
L 82.545468 210.813177 
Q 81.741468 210.813177 81.741468 211.617177 
L 81.741468 218.101521 
Q 81.741468 218.905521 82.545468 218.905521 
z
" style="fill: #ffffff; opacity: 0.78"/>
    </g>
    <!-- 1200 -->
    <g style="fill: #222222" transform="translate(82.545468 216.70813) scale(0.067 -0.067)">
     <use xlink:href="#DejaVuSans-31"/>
     <use xlink:href="#DejaVuSans-32" transform="translate(63.623047 0)"/>
     <use xlink:href="#DejaVuSans-30" transform="translate(127.246094 0)"/>
     <use xlink:href="#DejaVuSans-30" transform="translate(190.869141 0)"/>
    </g>
   </g>
   <g id="patch_35">
    <path d="M 240.979381 129.785752 
Q 263.685097 150.12251 285.724556 169.862525 
" style="fill: none; opacity: 0.6; stroke: #e45756; stroke-width: 0.8; stroke-linecap: round"/>
    <path d="M 284.079327 165.704013 
L 285.724556 169.862525 
L 281.410609 168.6836 
" style="fill: none; opacity: 0.6; stroke: #e45756; stroke-width: 0.8; stroke-linecap: round"/>
   </g>
   <g id="text_28">
    <!-- Proxy-vs-judge diagnostic -->
    <g transform="translate(124.724255 14.418516) scale(0.095 -0.095)">
     <defs>
      <path id="DejaVuSans-50" d="M 1259 4147 
L 1259 2394 
L 2053 2394 
Q 2494 2394 2734 2622 
Q 2975 2850 2975 3272 
Q 2975 3691 2734 3919 
Q 2494 4147 2053 4147 
L 1259 4147 
z
M 628 4666 
L 2053 4666 
Q 2838 4666 3239 4311 
Q 3641 3956 3641 3272 
Q 3641 2581 3239 2228 
Q 2838 1875 2053 1875 
L 1259 1875 
L 1259 0 
L 628 0 
L 628 4666 
z
" transform="scale(0.015625)"/>
      <path id="DejaVuSans-76" d="M 191 3500 
L 800 3500 
L 1894 563 
L 2988 3500 
L 3597 3500 
L 2284 0 
L 1503 0 
L 191 3500 
z
" transform="scale(0.015625)"/>
      <path id="DejaVuSans-74" d="M 1172 4494 
L 1172 3500 
L 2356 3500 
L 2356 3053 
L 1172 3053 
L 1172 1153 
Q 1172 725 1289 603 
Q 1406 481 1766 481 
L 2356 481 
L 2356 0 
L 1766 0 
Q 1100 0 847 248 
Q 594 497 594 1153 
L 594 3053 
L 172 3053 
L 172 3500 
L 594 3500 
L 594 4494 
L 1172 4494 
z
" transform="scale(0.015625)"/>
      <path id="DejaVuSans-63" d="M 3122 3366 
L 3122 2828 
Q 2878 2963 2633 3030 
Q 2388 3097 2138 3097 
Q 1578 3097 1268 2742 
Q 959 2388 959 1747 
Q 959 1106 1268 751 
Q 1578 397 2138 397 
Q 2388 397 2633 464 
Q 2878 531 3122 666 
L 3122 134 
Q 2881 22 2623 -34 
Q 2366 -91 2075 -91 
Q 1284 -91 818 406 
Q 353 903 353 1747 
Q 353 2603 823 3093 
Q 1294 3584 2113 3584 
Q 2378 3584 2631 3529 
Q 2884 3475 3122 3366 
z
" transform="scale(0.015625)"/>
     </defs>
     <use xlink:href="#DejaVuSans-50"/>
     <use xlink:href="#DejaVuSans-72" transform="translate(58.552734 0)"/>
     <use xlink:href="#DejaVuSans-6f" transform="translate(97.416016 0)"/>
     <use xlink:href="#DejaVuSans-78" transform="translate(155.472656 0)"/>
     <use xlink:href="#DejaVuSans-79" transform="translate(214.652344 0)"/>
     <use xlink:href="#DejaVuSans-2d" transform="translate(272.082031 0)"/>
     <use xlink:href="#DejaVuSans-76" transform="translate(305.541016 0)"/>
     <use xlink:href="#DejaVuSans-73" transform="translate(364.720703 0)"/>
     <use xlink:href="#DejaVuSans-2d" transform="translate(416.820312 0)"/>
     <use xlink:href="#DejaVuSans-6a" transform="translate(452.904297 0)"/>
     <use xlink:href="#DejaVuSans-75" transform="translate(480.6875 0)"/>
     <use xlink:href="#DejaVuSans-64" transform="translate(544.066406 0)"/>
     <use xlink:href="#DejaVuSans-67" transform="translate(607.542969 0)"/>
     <use xlink:href="#DejaVuSans-65" transform="translate(671.019531 0)"/>
     <use xlink:href="#DejaVuSans-20" transform="translate(732.542969 0)"/>
     <use xlink:href="#DejaVuSans-64" transform="translate(764.330078 0)"/>
     <use xlink:href="#DejaVuSans-69" transform="translate(827.806641 0)"/>
     <use xlink:href="#DejaVuSans-61" transform="translate(855.589844 0)"/>
     <use xlink:href="#DejaVuSans-67" transform="translate(916.869141 0)"/>
     <use xlink:href="#DejaVuSans-6e" transform="translate(980.345703 0)"/>
     <use xlink:href="#DejaVuSans-6f" transform="translate(1043.724609 0)"/>
     <use xlink:href="#DejaVuSans-73" transform="translate(1104.90625 0)"/>
     <use xlink:href="#DejaVuSans-74" transform="translate(1157.005859 0)"/>
     <use xlink:href="#DejaVuSans-69" transform="translate(1196.214844 0)"/>
     <use xlink:href="#DejaVuSans-63" transform="translate(1223.998047 0)"/>
    </g>
   </g>
   <g id="legend_1">
    <g id="patch_36">
     <path d="M 235.312104 232.158516 
L 327.900729 232.158516 
Q 329.340729 232.158516 329.340729 230.718516 
L 329.340729 200.453766 
Q 329.340729 199.013766 327.900729 199.013766 
L 235.312104 199.013766 
Q 233.872104 199.013766 233.872104 200.453766 
L 233.872104 230.718516 
Q 233.872104 232.158516 235.312104 232.158516 
z
" style="fill: #ffffff; opacity: 0.8; stroke: #cccccc; stroke-linejoin: miter"/>
    </g>
    <g id="line2d_21">
     <path d="M 236.392104 204.484641 
L 243.592104 204.484641 
L 250.792104 204.484641 
" style="fill: none; stroke: #000000; stroke-opacity: 0; stroke-width: 1.5; stroke-linecap: square"/>
     <defs>
      <path id="mddcfd987b9" d="M 0 2.1 
C 0.556927 2.1 1.091118 1.878731 1.484924 1.484924 
C 1.878731 1.091118 2.1 0.556927 2.1 0 
C 2.1 -0.556927 1.878731 -1.091118 1.484924 -1.484924 
C 1.091118 -1.878731 0.556927 -2.1 0 -2.1 
C -0.556927 -2.1 -1.091118 -1.878731 -1.484924 -1.484924 
C -1.878731 -1.091118 -2.1 -0.556927 -2.1 0 
C -2.1 0.556927 -1.878731 1.091118 -1.484924 1.484924 
C -1.091118 1.878731 -0.556927 2.1 0 2.1 
z
" style="stroke: #222222; stroke-width: 0.45"/>
     </defs>
     <g>
      <use xlink:href="#mddcfd987b9" x="243.592104" y="204.484641" style="fill: #e45756; stroke: #222222; stroke-width: 0.45"/>
     </g>
    </g>
    <g id="text_29">
     <!-- PPO beta=0 -->
     <g transform="translate(253.672104 207.004641) scale(0.072 -0.072)">
      <defs>
       <path id="DejaVuSans-4f" d="M 2522 4238 
Q 1834 4238 1429 3725 
Q 1025 3213 1025 2328 
Q 1025 1447 1429 934 
Q 1834 422 2522 422 
Q 3209 422 3611 934 
Q 4013 1447 4013 2328 
Q 4013 3213 3611 3725 
Q 3209 4238 2522 4238 
z
M 2522 4750 
Q 3503 4750 4090 4092 
Q 4678 3434 4678 2328 
Q 4678 1225 4090 567 
Q 3503 -91 2522 -91 
Q 1538 -91 948 565 
Q 359 1222 359 2328 
Q 359 3434 948 4092 
Q 1538 4750 2522 4750 
z
" transform="scale(0.015625)"/>
       <path id="DejaVuSans-62" d="M 3116 1747 
Q 3116 2381 2855 2742 
Q 2594 3103 2138 3103 
Q 1681 3103 1420 2742 
Q 1159 2381 1159 1747 
Q 1159 1113 1420 752 
Q 1681 391 2138 391 
Q 2594 391 2855 752 
Q 3116 1113 3116 1747 
z
M 1159 2969 
Q 1341 3281 1617 3432 
Q 1894 3584 2278 3584 
Q 2916 3584 3314 3078 
Q 3713 2572 3713 1747 
Q 3713 922 3314 415 
Q 2916 -91 2278 -91 
Q 1894 -91 1617 61 
Q 1341 213 1159 525 
L 1159 0 
L 581 0 
L 581 4863 
L 1159 4863 
L 1159 2969 
z
" transform="scale(0.015625)"/>
       <path id="DejaVuSans-3d" d="M 678 2906 
L 4684 2906 
L 4684 2381 
L 678 2381 
L 678 2906 
z
M 678 1631 
L 4684 1631 
L 4684 1100 
L 678 1100 
L 678 1631 
z
" transform="scale(0.015625)"/>
      </defs>
      <use xlink:href="#DejaVuSans-50"/>
      <use xlink:href="#DejaVuSans-50" transform="translate(60.302734 0)"/>
      <use xlink:href="#DejaVuSans-4f" transform="translate(120.605469 0)"/>
      <use xlink:href="#DejaVuSans-20" transform="translate(199.316406 0)"/>
      <use xlink:href="#DejaVuSans-62" transform="translate(231.103516 0)"/>
      <use xlink:href="#DejaVuSans-65" transform="translate(294.580078 0)"/>
      <use xlink:href="#DejaVuSans-74" transform="translate(356.103516 0)"/>
      <use xlink:href="#DejaVuSans-61" transform="translate(395.3125 0)"/>
      <use xlink:href="#DejaVuSans-3d" transform="translate(456.591797 0)"/>
      <use xlink:href="#DejaVuSans-30" transform="translate(540.380859 0)"/>
     </g>
    </g>
    <g id="line2d_22">
     <path d="M 236.392104 215.052891 
L 243.592104 215.052891 
L 250.792104 215.052891 
" style="fill: none; stroke: #000000; stroke-opacity: 0; stroke-width: 1.5; stroke-linecap: square"/>
     <defs>
      <path id="mb3f7ce1049" d="M -2.1 2.1 
L 2.1 2.1 
L 2.1 -2.1 
L -2.1 -2.1 
z
" style="stroke: #222222; stroke-width: 0.45; stroke-linejoin: miter"/>
     </defs>
     <g>
      <use xlink:href="#mb3f7ce1049" x="243.592104" y="215.052891" style="fill: #4c78a8; stroke: #222222; stroke-width: 0.45; stroke-linejoin: miter"/>
     </g>
    </g>
    <g id="text_30">
     <!-- UP-PPO lambda=0.1 -->
     <g transform="translate(253.672104 217.572891) scale(0.072 -0.072)">
      <defs>
       <path id="DejaVuSans-55" d="M 556 4666 
L 1191 4666 
L 1191 1831 
Q 1191 1081 1462 751 
Q 1734 422 2344 422 
Q 2950 422 3222 751 
Q 3494 1081 3494 1831 
L 3494 4666 
L 4128 4666 
L 4128 1753 
Q 4128 841 3676 375 
Q 3225 -91 2344 -91 
Q 1459 -91 1007 375 
Q 556 841 556 1753 
L 556 4666 
z
" transform="scale(0.015625)"/>
      </defs>
      <use xlink:href="#DejaVuSans-55"/>
      <use xlink:href="#DejaVuSans-50" transform="translate(73.193359 0)"/>
      <use xlink:href="#DejaVuSans-2d" transform="translate(131.246094 0)"/>
      <use xlink:href="#DejaVuSans-50" transform="translate(167.330078 0)"/>
      <use xlink:href="#DejaVuSans-50" transform="translate(227.632812 0)"/>
      <use xlink:href="#DejaVuSans-4f" transform="translate(287.935547 0)"/>
      <use xlink:href="#DejaVuSans-20" transform="translate(366.646484 0)"/>
      <use xlink:href="#DejaVuSans-6c" transform="translate(398.433594 0)"/>
      <use xlink:href="#DejaVuSans-61" transform="translate(426.216797 0)"/>
      <use xlink:href="#DejaVuSans-6d" transform="translate(487.496094 0)"/>
      <use xlink:href="#DejaVuSans-62" transform="translate(584.908203 0)"/>
      <use xlink:href="#DejaVuSans-64" transform="translate(648.384766 0)"/>
      <use xlink:href="#DejaVuSans-61" transform="translate(711.861328 0)"/>
      <use xlink:href="#DejaVuSans-3d" transform="translate(773.140625 0)"/>
      <use xlink:href="#DejaVuSans-30" transform="translate(856.929688 0)"/>
      <use xlink:href="#DejaVuSans-2e" transform="translate(920.552734 0)"/>
      <use xlink:href="#DejaVuSans-31" transform="translate(952.339844 0)"/>
     </g>
    </g>
    <g id="line2d_23">
     <path d="M 236.392104 225.621141 
L 243.592104 225.621141 
L 250.792104 225.621141 
" style="fill: none; stroke: #000000; stroke-opacity: 0; stroke-width: 1.5; stroke-linecap: square"/>
     <defs>
      <path id="m7684621ace" d="M 0 -2.1 
L -2.1 2.1 
L 2.1 2.1 
z
" style="stroke: #222222; stroke-width: 0.45; stroke-linejoin: miter"/>
     </defs>
     <g>
      <use xlink:href="#m7684621ace" x="243.592104" y="225.621141" style="fill: #54a24b; stroke: #222222; stroke-width: 0.45; stroke-linejoin: miter"/>
     </g>
    </g>
    <g id="text_31">
     <!-- UP-PPO lambda=0.5 -->
     <g transform="translate(253.672104 228.141141) scale(0.072 -0.072)">
      <defs>
       <path id="DejaVuSans-35" d="M 691 4666 
L 3169 4666 
L 3169 4134 
L 1269 4134 
L 1269 2991 
Q 1406 3038 1543 3061 
Q 1681 3084 1819 3084 
Q 2600 3084 3056 2656 
Q 3513 2228 3513 1497 
Q 3513 744 3044 326 
Q 2575 -91 1722 -91 
Q 1428 -91 1123 -41 
Q 819 9 494 109 
L 494 744 
Q 775 591 1075 516 
Q 1375 441 1709 441 
Q 2250 441 2565 725 
Q 2881 1009 2881 1497 
Q 2881 1984 2565 2268 
Q 2250 2553 1709 2553 
Q 1456 2553 1204 2497 
Q 953 2441 691 2322 
L 691 4666 
z
" transform="scale(0.015625)"/>
      </defs>
      <use xlink:href="#DejaVuSans-55"/>
      <use xlink:href="#DejaVuSans-50" transform="translate(73.193359 0)"/>
      <use xlink:href="#DejaVuSans-2d" transform="translate(131.246094 0)"/>
      <use xlink:href="#DejaVuSans-50" transform="translate(167.330078 0)"/>
      <use xlink:href="#DejaVuSans-50" transform="translate(227.632812 0)"/>
      <use xlink:href="#DejaVuSans-4f" transform="translate(287.935547 0)"/>
      <use xlink:href="#DejaVuSans-20" transform="translate(366.646484 0)"/>
      <use xlink:href="#DejaVuSans-6c" transform="translate(398.433594 0)"/>
      <use xlink:href="#DejaVuSans-61" transform="translate(426.216797 0)"/>
      <use xlink:href="#DejaVuSans-6d" transform="translate(487.496094 0)"/>
      <use xlink:href="#DejaVuSans-62" transform="translate(584.908203 0)"/>
      <use xlink:href="#DejaVuSans-64" transform="translate(648.384766 0)"/>
      <use xlink:href="#DejaVuSans-61" transform="translate(711.861328 0)"/>
      <use xlink:href="#DejaVuSans-3d" transform="translate(773.140625 0)"/>
      <use xlink:href="#DejaVuSans-30" transform="translate(856.929688 0)"/>
      <use xlink:href="#DejaVuSans-2e" transform="translate(920.552734 0)"/>
      <use xlink:href="#DejaVuSans-35" transform="translate(952.339844 0)"/>
     </g>
    </g>
   </g>
  </g>
 </g>
 <defs>
  <clipPath id="p6d79925ae5">
   <rect x="38.012781" y="20.418516" width="294.927948" height="215.34"/>
  </clipPath>
 </defs>
</svg>
